<svg xmlns="http://www.w3.org/2000/svg" xmlns:xlink="http://www.w3.org/1999/xlink" width="29" height="29">
	<path fill="currentColor" d="M15.238976 0.00077251316C17.092804 0.0034538701 17.918823 0.013635966 18.683279 0.039292272L18.911736 0.047461361C19.178368 0.05755217 19.449295 0.069636241 19.765944 0.084055446C21.255611 0.15186535 22.273001 0.38800791 23.163221 0.7333228C24.083555 1.0902257 24.864056 1.5678337 25.642166 2.3443484C26.420221 3.1209188 26.898777 3.8998733 27.256445 4.8183842C27.602388 5.7068434 27.839001 6.722218 27.906944 8.2089348C27.919329 8.4798117 27.929993 8.7171621 27.939156 8.9470243L27.951796 9.2894564C27.977503 10.052402 27.987705 10.876793 27.990393 12.726976L27.990982 13.31377L27.991085 13.524045L27.991121 14.303734C27.991091 14.412713 27.991045 14.518766 27.990982 14.622014L27.990393 15.208799C27.987705 17.058958 27.977503 17.883341 27.951796 18.646282L27.939156 18.988714C27.929993 19.218576 27.919329 19.455927 27.906944 19.726805C27.839001 21.21352 27.602388 22.228895 27.256445 23.117355C26.898777 24.035866 26.420221 24.814819 25.642166 25.591391C24.864056 26.367905 24.083555 26.845512 23.163221 27.202471C22.273001 27.547731 21.255611 27.783873 19.765944 27.851683C19.449295 27.866102 19.178368 27.878187 18.911736 27.888277L18.683279 27.896446C17.8806 27.923386 17.010048 27.933264 14.953072 27.935312L13.038136 27.935312C10.981131 27.933264 10.11057 27.923386 9.307888 27.896446L9.0794315 27.888277C8.8127995 27.878187 8.541872 27.866102 8.2252226 27.851683C6.7355556 27.783873 5.7181668 27.547731 4.8279443 27.202471C3.9076111 26.845512 3.1271112 26.367905 2.349 25.591391C1.5709444 24.814819 1.0923889 24.035866 0.73477775 23.117355C0.38877779 22.228895 0.15216666 21.21352 0.08422222 19.726805C0.069774412 19.410782 0.057666361 19.14039 0.047555532 18.874287L0.039370231 18.646282C0.013663022 17.883341 0.003460723 17.058958 0.00077404594 15.208799L0.00077404594 12.726976C0.003460723 10.876793 0.013663022 10.052402 0.039370231 9.2894564L0.047555532 9.0614529C0.057666361 8.7953482 0.069774412 8.5249577 0.08422222 8.2089348C0.15216666 6.722218 0.38877779 5.7068434 0.73477775 4.8183842C1.0923889 3.8998733 1.5709444 3.1209188 2.349 2.3443484C3.1271112 1.5678337 3.9076111 1.0902257 4.8279443 0.7333228C5.7181668 0.38800791 6.7355556 0.15186535 8.2252226 0.084055446C8.541872 0.069636241 8.8127995 0.05755217 9.0794315 0.047461361L9.307888 0.039292272C10.072347 0.013635966 10.898374 0.0034538701 12.752229 0.00077251316L15.238976 0.00077251316ZM14.65874 2.5169051L13.332473 2.5169051L13.178009 2.5170081L12.468669 2.51792C10.095056 2.5224745 9.5853539 2.5414782 8.340167 2.5981781C6.9756112 2.6602771 6.2345557 2.8878257 5.7413888 3.0791128C5.0881109 3.332499 4.6218891 3.6351762 4.1321669 4.1239843C3.6423888 4.6127367 3.3391111 5.0780358 3.0852222 5.7300196C2.8935556 6.2222099 2.6655555 6.9617982 2.6033332 8.3236513C2.5886042 8.6458387 2.5764139 8.9186878 2.5663562 9.1874065L2.5582485 9.4177799C2.5354352 10.112192 2.5259583 10.864703 2.5229158 12.443978L2.5221307 13.002079C2.5220363 13.100551 2.5219595 13.201838 2.521899 13.306071L2.521899 14.629713L2.5220022 14.783868L2.5229158 15.491794C2.5257893 16.983311 2.5344021 17.737387 2.5545685 18.401556L2.5621753 18.633289L2.5707984 18.863882C2.5799487 19.096014 2.5907083 19.335926 2.6033332 19.612087C2.6655555 20.97394 2.8935556 21.71353 3.0852222 22.205719C3.3391111 22.857702 3.6424444 23.323002 4.1321669 23.811754C4.6218891 24.300562 5.0881109 24.603239 5.7413888 24.856627C6.2345557 25.047913 6.9756112 25.275461 8.340167 25.337561C8.7090693 25.354361 9.0134058 25.367851 9.3207989 25.378637L9.5529728 25.386229C10.257552 25.407539 11.063184 25.415922 12.740119 25.418266L13.654761 25.418966L13.995611 25.41901L14.168397 25.418999L15.251087 25.418266C16.928005 25.415922 17.733644 25.407539 18.438221 25.386229L18.670393 25.378637C18.977781 25.367851 19.28211 25.354361 19.650999 25.337561C21.015556 25.275461 21.756611 25.047913 22.249777 24.856627C22.903055 24.603239 23.369278 24.300562 23.858999 23.811754C24.348778 23.323002 24.652056 22.857702 24.905945 22.205719C25.09761 21.71353 25.325611 20.97394 25.387833 19.612087C25.400457 19.335926 25.411219 19.096014 25.420368 18.863882L25.428991 18.633289L25.436598 18.401556C25.459137 17.659248 25.467243 16.804636 25.469036 14.933702L25.469036 13.002079C25.46715 11.032644 25.458267 10.189349 25.432919 9.4177799L25.42481 9.1874065C25.414753 8.9186878 25.402563 8.6458387 25.387833 8.3236513C25.325611 6.9617982 25.09761 6.2222099 24.905945 5.7300196C24.652056 5.0780358 24.348778 4.6127367 23.858999 4.1239843C23.369278 3.6351762 22.903055 3.332499 22.249777 3.0791128C21.756611 2.8878257 21.015556 2.6602771 19.650999 2.5981781C19.282055 2.5813782 18.97768 2.5678875 18.670259 2.5571017L18.438066 2.54951C17.772579 2.5293834 17.017008 2.5207877 15.522532 2.51792L14.963331 2.5171363C14.864666 2.5170422 14.76318 2.5169656 14.65874 2.5169051ZM13.995611 6.7951841C17.964834 6.7951841 21.182501 10.006479 21.182501 13.967897C21.182501 17.92926 17.964834 21.140554 13.995611 21.140554C10.026334 21.140554 6.8086667 17.92926 6.8086667 13.967897C6.8086667 10.006479 10.026334 6.7951841 13.995611 6.7951841ZM13.995611 9.3119125C11.419056 9.3119125 9.330389 11.396443 9.330389 13.967897C9.330389 16.539295 11.419056 18.623825 13.995611 18.623825C16.572111 18.623825 18.660778 16.539295 18.660778 13.967897C18.660778 11.396443 16.572111 9.3119125 13.995611 9.3119125ZM21.466444 4.8356276C22.393999 4.8356276 23.145945 5.5860829 23.145945 6.5118022C23.145945 7.437521 22.393999 8.1879206 21.466444 8.1879206C20.538944 8.1879206 19.787001 7.437521 19.787001 6.5118022C19.787001 5.5860829 20.538944 4.8356276 21.466444 4.8356276Z" fill-rule="evenodd"/>
</svg>