<svg xmlns="http://www.w3.org/2000/svg" xmlns:xlink="http://www.w3.org/1999/xlink" width="21" height="24">
	<g fill="currentColor">
		<path transform="translate(0 8.44275)" d="M8.306818 1.0074443L8.306818 0.071465075C7.980082 0.025332769 7.6503954 0.0015999645 7.3204403 0C3.2839911 0 0 3.2649941 0 7.2774382C0 9.7387171 1.2374653 11.917602 3.1251833 13.235172C1.8611608 11.891469 1.1583297 10.120308 1.1594028 8.2806158C1.1594028 4.3252373 4.3500404 1.0997089 8.306818 1.0074443"/>
		<path transform="translate(5.76938 0)" d="M2.7101912 20.046488C4.5112624 20.046488 5.9802327 18.622253 6.047297 16.847359L6.0534668 1.0031776L8.9653864 1.0031776C8.9031515 0.6722517 8.8717651 0.33652586 8.8714972 0L4.8943324 0L4.8876257 15.844714C4.8213668 17.619076 3.3515916 19.042776 1.5510566 19.042776C1.0105207 19.043043 0.47803235 18.912113 0 18.661184C0.62637794 19.529966 1.6350209 20.045422 2.7101912 20.046488M14.404547 6.3814583L14.404547 5.5009441C13.334474 5.5020108 12.287202 5.1924181 11.391495 4.6105642C12.176949 5.5094776 13.234146 6.1307969 14.405084 6.3814583"/>
		<path transform="translate(3.97716 1.00398)" d="M13.183714 3.6057866C12.30598 2.6074088 11.822314 1.3261038 11.82285 0L10.757338 0C11.036056 1.4810337 11.912985 2.7842047 13.183714 3.6057866M3.3432755 11.39228C1.4976737 11.394413 0.0021460487 12.881047 0 14.715672C0.0010730244 15.950846 0.6910277 17.08362 1.7916824 17.657475C1.3804458 17.093754 1.1591345 16.415634 1.1591345 15.719384C1.1610123 13.884758 2.6565399 12.397591 4.5024099 12.395458C4.8468509 12.395458 5.177074 12.45199 5.4887877 12.549321L5.4887877 8.5131445C5.1620517 8.4670115 4.832365 8.4432793 4.5024099 8.441679C4.4444666 8.441679 4.3873281 8.4448786 4.3299212 8.4459457L4.3299212 11.546144C4.0106969 11.445346 3.6780591 11.393347 3.3432755 11.39228"/>
		<path transform="translate(3.12545 6.38066)" d="M17.048479 0.00079998223L17.048479 3.0735316C14.985858 3.0735316 13.075606 2.4178128 11.515161 1.3047709L11.515161 9.3392591C11.515161 13.351703 8.2317066 16.616163 4.1952567 16.616163C2.6353478 16.616163 1.188911 16.126841 0 15.296993C1.3817871 16.778294 3.3220832 17.619875 5.3541231 17.619343C9.3905725 17.619343 12.674563 14.354881 12.674563 10.34297L12.674563 2.3084819C14.286514 3.4607232 16.222519 4.0796428 18.207882 4.0772429L18.207882 0.12266394C17.80979 0.12266394 17.422697 0.079731561 17.04821 0"/>
		<path transform="translate(1.1594 1.00398)" d="M13.480941 14.715672L13.480941 6.6811848C15.092892 7.8336926 17.028896 8.4523458 19.014259 8.4499454L19.014259 5.3774805C17.84359 5.1265526 16.786392 4.5049667 16.001207 3.6057866C14.730478 2.7842047 13.853549 1.4810337 13.574831 0L10.663179 0L10.657009 15.844181C10.590214 17.618542 9.1209755 19.042776 7.3199039 19.042776C6.2450018 19.04171 5.2360907 18.525988 4.6099806 17.657742C3.509326 17.084154 2.8191032 15.951379 2.8177619 14.71594C2.8199079 12.881313 4.3154354 11.39468 6.1610374 11.392547C6.5049419 11.392547 6.835165 11.448545 7.1474152 11.54641L7.1474152 8.4462118C3.1906378 8.5384769 0 11.764005 0 15.719384C0 17.632141 0.7476297 19.373436 1.9657806 20.673941C3.193857 21.533388 4.6593399 21.993912 6.1610374 21.99258C10.197755 21.99258 13.480941 18.728117 13.480941 14.715672"/>
	</g>
</svg>