<svg xmlns="http://www.w3.org/2000/svg" xmlns:xlink="http://www.w3.org/1999/xlink" width="28" height="20">
	<path fill="currentColor" transform="translate(0.00104523 0.0011797)" d="M14.14712 -0.0011847832C14.171281 -0.0011168387 14.198244 -0.001031908 14.2279 -0.00092574459L14.564571 0.00071766437C16.537224 0.012675907 23.090456 0.090404481 24.937918 0.59564024C26.142872 0.92418861 27.091532 1.8922532 27.41353 3.121608C27.952473 5.1737728 27.99502 9.2795992 27.998379 9.9150972L27.998379 10.081987C27.99502 10.717465 27.952473 14.823178 27.41353 16.875641C27.091532 18.104834 26.142872 19.072899 24.937918 19.401608C22.964493 19.941145 15.621725 19.993025 14.2279 19.998013L13.769435 19.998013C12.375608 19.993025 5.0328269 19.941145 3.0592582 19.401608C1.8544629 19.072899 0.90564466 18.104834 0.58364469 16.875641C0.091032237 14.999104 0.013251326 11.406217 0.00097012921 10.318404L-0.00065030641 10.144826C-0.0008208786 10.121133 -0.00094880775 10.100143 -0.0010447545 10.081987L-0.0010447545 9.9150972C-0.00094880775 9.8969402 -0.0008208786 9.8759499 -0.00065030641 9.8522558L0.00097012921 9.6786728C0.013251326 8.5908318 0.091032237 4.9978728 0.58364469 3.121608C0.90564466 1.8922532 1.8544629 0.92418861 3.0592582 0.59564024C3.9830563 0.34302235 6.0832686 0.19728127 8.1991129 0.11319988L8.7756777 0.09176337C10.693035 0.025177706 12.536101 0.0061532292 13.432763 0.00071766437L13.769435 -0.00092574459C13.79909 -0.001031908 13.826054 -0.0011168387 13.850214 -0.0011847832L14.14712 -0.0011847832ZM11.134983 5.7777534L11.134983 14.219366L18.453165 9.9987211L11.134983 5.7777534Z" fill-rule="evenodd"/>
</svg>