<svg height="48" viewBox="0 0 150 48" width="150" xmlns="http://www.w3.org/2000/svg" xmlns:xlink="http://www.w3.org/1999/xlink"><defs><radialGradient id="a" cx="64.546324%" cy="70.245041%" gradientTransform="matrix(.33703775 .94149114 -1.24154436 .44445168 1.300127 -.21746)" r="142.532236%"><stop offset="0" stop-color="#503dd9"/><stop offset=".0823593964" stop-color="#503dd9" stop-opacity=".882353"/><stop offset=".144060357" stop-color="#503dd9" stop-opacity=".745098"/><stop offset=".197037037" stop-color="#503dd9" stop-opacity=".6"/><stop offset=".253223594" stop-color="#503dd9" stop-opacity=".45098"/><stop offset=".324554184" stop-color="#503dd9" stop-opacity=".309804"/><stop offset=".422962963" stop-color="#503dd9" stop-opacity=".188235"/><stop offset=".560384088" stop-color="#503dd9" stop-opacity=".090196"/><stop offset=".748751715" stop-color="#503dd9" stop-opacity=".023529"/><stop offset="1" stop-color="#503dd9" stop-opacity="0"/></radialGradient><radialGradient id="b" cx="50.908833%" cy="51.179751%" gradientTransform="matrix(.48975531 .87185993 -1.9445092 1.09230127 1.254965 -.491104)" r="45.33113%"><stop offset="0" stop-color="#d7fa00" stop-opacity="0"/><stop offset=".321186626" stop-color="#d7fa00" stop-opacity="0"/><stop offset=".651879371" stop-color="#d7fa00"/><stop offset="1" stop-color="#d7fa00" stop-opacity="0"/></radialGradient><radialGradient id="c" cx="53.397132%" cy="50%" gradientTransform="matrix(.52190765 .853002 -1.90245035 1.16401063 1.206526 -.537508)" r="43.891965%"><stop offset="0" stop-color="#d7fa00" stop-opacity="0"/><stop offset=".321186626" stop-color="#d7fa00" stop-opacity="0"/><stop offset=".651879371" stop-color="#d7fa00"/><stop offset="1" stop-color="#d7fa00" stop-opacity="0"/><stop offset="1" stop-opacity="0"/></radialGradient><radialGradient id="d" cx="49.911721%" cy="46.991461%" gradientTransform="matrix(.53072865 .8475418 -1.89027247 1.18368411 1.122452 -.509321)" r="43.413343%"><stop offset="0" stop-color="#d7fa00" stop-opacity="0"/><stop offset=".51294799" stop-color="#d7fa00" stop-opacity="0"/><stop offset=".679742133" stop-color="#fff"/><stop offset="1" stop-color="#d7fa00" stop-opacity="0"/></radialGradient><path id="e" d="m18.1126083 0h11.7747834c6.2981485 0 8.5820093.65576803 10.8845183 1.88716329 2.3025089 1.23139527 4.1095314 3.03841778 5.3409267 5.34092674s1.8871633 4.58636977 1.8871633 10.88451827v11.7747834c0 6.2981485-.655768 8.5820093-1.8871633 10.8845183-1.2313953 2.3025089-3.0384178 4.1095314-5.3409267 5.3409267-2.302509 1.2313953-4.5863698 1.8871633-10.8845183 1.8871633h-11.7747834c-6.2981485 0-8.58200931-.655768-10.88451827-1.8871633s-4.10953147-3.0384178-5.34092674-5.3409267c-1.23139526-2.302509-1.88716329-4.5863698-1.88716329-10.8845183v-11.7747834c0-6.2981485.65576803-8.58200931 1.88716329-10.88451827 1.23139527-2.30250896 3.03841778-4.10953147 5.34092674-5.34092674 2.30250896-1.23139526 4.58636977-1.88716329 10.88451827-1.88716329z"/><filter id="f" height="108.3%" width="108.3%" x="-4.2%" y="-4.2%"><feMorphology in="SourceAlpha" operator="erode" radius="1" result="shadowSpreadInner1"/><feGaussianBlur in="shadowSpreadInner1" result="shadowBlurInner1" stdDeviation="1.5"/><feOffset dx="0" dy="0" in="shadowBlurInner1" result="shadowOffsetInner1"/><feComposite in="shadowOffsetInner1" in2="SourceAlpha" k2="-1" k3="1" operator="arithmetic" result="shadowInnerInner1"/><feColorMatrix in="shadowInnerInner1" type="matrix" values="0 0 0 0 0   0 0 0 0 0   0 0 0 0 0  0 0 0 0.28783326 0"/></filter></defs><g fill="none" fill-rule="evenodd"><g fill="#2a273f" fill-rule="nonzero" transform="translate(72.24 3.5952)"><path d="m0 .384 5.376 16.8h2.112l4.704-13.776 4.632 13.776h2.112l5.376-16.8h-2.256l-4.08 13.608-4.752-13.608h-2.04l-4.848 13.608-4.08-13.608z"/><path d="m25.896.384v16.8h2.16v-16.8z"/><path d="m30.36.384v1.992h11.016l-11.016 12.816v1.992h13.56v-1.992h-11.016l11.016-12.816v-1.992z"/><path d="m45.744.384v1.992h11.016l-11.016 12.816v1.992h13.56v-1.992h-11.016l11.016-12.816v-1.992z"/><path d="m63.24 9.096h14.352c.192-5.808-2.88-9.096-8.112-9.096-4.896 0-8.352 3.384-8.352 8.784s3.456 8.784 8.352 8.784c3.432 0 6.888-1.56 8.112-5.784l-1.92-.864c-1.008 3.504-3.576 4.728-6.192 4.728-3.816 0-6.12-2.664-6.24-6.552zm.12-1.92c.552-3.168 2.76-5.256 6.12-5.256 4.008 0 5.688 2.4 5.976 5.256z"/><path d="m7.752 42.3232208c3.936 0 6.648-1.8 6.648-5.088 0-3-2.232-4.08-6.144-4.968-3.888-.864-4.632-1.584-4.632-2.856 0-1.416.936-2.712 3.936-2.712 2.976 0 4.536 1.272 4.512 4.512l2.112-.288c0-3.672-2.04-6.144-6.6-6.144-4.344 0-5.952 2.232-5.952 4.752 0 2.88 2.136 3.768 5.976 4.752 3.024.768 4.776 1.008 4.776 2.976 0 2.304-2.568 3.144-4.8 3.144-3.528 0-5.28-2.088-4.968-5.688l-2.112.312c-.216 4.176 2.088 7.296 7.248 7.296z"/><path d="m16.464 25.1632208v16.8h2.16v-6.312h5.472c4.68 0 5.784-3.528 5.784-5.232 0-1.488-.84-5.208-5.784-5.232l-5.472-.024zm2.16 8.592v-6.696c2.256.024 5.424.024 5.472.024 2.736.048 3.672 1.728 3.672 3.336 0 1.68-1.032 3.36-4.032 3.36-.6 0-3.84-.072-5.112-.024z"/><path d="m42.192 41.9632208-.24-3.408v-3.216-.12l.024 3.288-.024.048c-1.104 2.208-4.272 3.768-6.768 3.768-2.568 0-5.16-1.656-5.16-4.704 0-2.184 1.536-4.176 4.032-5.088 2.208-.792 5.784-1.272 7.872-1.272l.024 1.536h-.024v-1.656c0-1.08-.072-4.44-4.752-4.44-4.056 0-4.704 2.952-5.04 4.416l-2.088-.456c.264-1.632 1.608-5.88 7.224-5.88 4.704 0 6.816 2.928 6.816 6.888v6.888c0 1.08 0 1.536 1.44 1.536l1.128.024v1.848zm-9.96-4.296c0 1.176.576 2.592 2.952 2.592 3.312 0 6.504-2.688 6.768-4.92l-.024-2.544c-1.248.072-5.136.84-7.272 1.632-1.944.72-2.424 2.184-2.424 3.24z"/><path d="m57.936 38.2672208v3.696h4.128v-1.608l-.648-.024c-1.44-.048-1.44-.528-1.44-1.224 0-2.04-.192-3.816-2.016-4.92 2.016-.576 3.216-2.04 3.216-4.224 0-2.856-2.088-4.752-5.616-4.776l-5.4-.024h-2.16v16.8h2.16v-7.08h4.296c2.904 0 3.48 1.896 3.48 3.384zm-7.776-5.256v-5.952h4.896c2.736 0 3.912 1.128 3.912 3.072 0 1.824-1.032 2.88-3.792 2.88z"/><path d="m63.648 25.1632208v16.8h2.16v-5.184l.024.024 2.976-3.264 6.384 8.424h2.448l-7.464-9.96 6.216-6.84h-2.592l-7.992 8.856v-8.856z"/></g><g><g fill-rule="evenodd"><use fill="#3a3a3a" xlink:href="#e"/><use fill="url(#a)" xlink:href="#e"/><use fill="url(#b)" xlink:href="#e"/><use fill="url(#c)" xlink:href="#e"/><use fill="url(#d)" xlink:href="#e"/></g><use fill="#000" filter="url(#f)" xlink:href="#e"/></g></g></svg>