<svg xmlns="http://www.w3.org/2000/svg" viewBox="0 0 261.1 117"><style>
@keyframes a0_t { 0% { transform: rotate(0deg) translate(-91.5px,-41px); animation-timing-function: cubic-bezier(.4,0,1,.7); } 20% { transform: rotate(-6deg) translate(-91.5px,-41px); animation-timing-function: cubic-bezier(.4,0,.6,1); } 60% { transform: rotate(18deg) translate(-91.5px,-41px); animation-timing-function: cubic-bezier(0,.3,.6,1); } 100% { transform: rotate(0deg) translate(-91.5px,-41px); } }
@keyframes a0_mo { 0% { offset-distance: 0%; } 38% { offset-distance: 27.645%; } 86% { offset-distance: 84.354%; } 100% { offset-distance: 100%; } }
@keyframes a1_t { 0% { transform: translate(67.8px,4px); animation-timing-function: cubic-bezier(0,1,0,1); } 10% { transform: translate(95.8px,4px); animation-timing-function: cubic-bezier(0,.8,0,1); } 20% { transform: translate(39.3px,4px); animation-timing-function: cubic-bezier(.3,1,.6,1); } 30% { transform: translate(38.8px,4px); animation-timing-function: cubic-bezier(0,0,0,.8); } 50% { transform: translate(67.5px,4px); animation-timing-function: cubic-bezier(.3,.6,.6,1); } 62% { transform: translate(95.8px,4px); animation-timing-function: cubic-bezier(0,.8,.6,1); } 80% { transform: translate(67.5px,4px); } 100% { transform: translate(67.5px,4px); } }
</style><g style="transform: translate(-91.5px,-41px); animation: 5s linear infinite both a0_t, 5s linear infinite both a0_mo; offset-path: path('M130.555,58.5C122.5,56.5,117.5,43.5,114.555,52.5C109,63.5,151.5,73.5,140.555,55.5001C136,51.5,134.757,60.1351,130.555,58.5'); offset-rotate: 0deg;"><g fill="none" fill-rule="evenodd"><path d="M91.5 0c38.2 0 71.8 16.3 91.5 41c-19.7 24.7-53.3 41-91.5 41c-38.2 0-71.8-16.3-91.5-41c19.7-24.7 53.3-41 91.5-41Z" fill="#d7fa00"/></g><g fill="none" fill-rule="evenodd" transform="translate(91.5,41) translate(-23.7,-37)" style="animation: 5s linear infinite both a1_t;"><path d="M24 0c11.4 0 21 12.3 23.4 28.7c-6.9 2.4-13 5.2-18.1 8.3c5.1 3.1 11.2 5.9 18.1 8.3c-2.5 16.5-12 28.7-23.4 28.7c-13.3 0-24-16.6-24-37c0-20.4 10.7-37 24-37Z" fill="#503dd9"/><ellipse cx="19.4" cy="14.6" fill="#fff" rx="7" ry="7"/></g></g></svg>