<svg width="311" height="227" viewBox="0 0 311 227" fill="none" xmlns="http://www.w3.org/2000/svg">
<g clip-path="url(#clip0_0_1101)">
<rect x="0.7229" y="58.9824" width="280" height="131" rx="8" transform="rotate(-12 0.7229 58.9824)" fill="#503DD9"/>
<path d="M89.5373 79.4944C98.5034 77.5886 107.319 83.3215 109.484 93.5104C113.816 113.888 94.1531 130.238 87.702 136.173C79.3945 133.375 54.7816 126.436 50.4502 106.058C48.2845 95.8696 54.1168 87.0233 62.9719 85.1411C68.462 83.9741 73.9217 85.8563 77.4921 88.14C79.8251 84.6015 84.0471 80.6614 89.5373 79.4944Z" fill="white"/>
<path fill-rule="evenodd" clip-rule="evenodd" d="M207.892 147.852C204.29 148.617 201.239 150.994 199.616 154.299L181.449 191.29C178.527 197.238 171.336 199.692 165.388 196.771C164.529 196.349 163.724 195.826 162.989 195.213L131.348 168.81C128.52 166.451 124.766 165.521 121.165 166.286L207.892 147.852Z" fill="#503DD9"/>
</g>
<defs>
<clipPath id="clip0_0_1101">
<rect width="280" height="171.577" fill="white" transform="translate(0.7229 58.9824) rotate(-12)"/>
</clipPath>
</defs>
</svg>
