<?xml version="1.0" encoding="UTF-8" standalone="no"?>
<!-- Created with Keyshape -->
<svg xmlns="http://www.w3.org/2000/svg" viewBox="0 0 667 373" text-rendering="geometricPrecision" shape-rendering="geometricPrecision" style="white-space: pre;">
    <defs>
        <linearGradient id="Gradient-0" x1="0" y1="186.5" x2="269.153" y2="186.5" gradientUnits="userSpaceOnUse">
            <stop offset="0" stop-color="#bc4141"/>
            <stop offset="1" stop-color="#f88383"/>
        </linearGradient>
        <linearGradient id="Gradient-1" x1="1.49252" y1="186.5" x2="269.153" y2="186.5" gradientUnits="userSpaceOnUse">
            <stop offset="0" stop-color="#ca8d38"/>
            <stop offset="1" stop-color="#f9c274"/>
        </linearGradient>
        <linearGradient id="Gradient-2" x1="269.153" y1="186.5" x2="0" y2="186.5" gradientUnits="userSpaceOnUse">
            <stop offset="0" stop-color="#c88fff"/>
            <stop offset="1" stop-color="#9756ff"/>
        </linearGradient>
    </defs>
    <style>
@keyframes insta_yt_t { 0% { transform: translate(0px,0.000002px); animation-timing-function: cubic-bezier(0,0,0,1); } 75% { transform: translate(198.923512px,0.000002px); } 100% { transform: translate(198.923512px,0.000002px); } }
@keyframes yt_t { 0% { transform: translate(0px,-0.000002px); animation-timing-function: cubic-bezier(0,0,0,1); } 75% { transform: translate(198.9235px,-0.000002px); } 100% { transform: translate(198.9235px,-0.000002px); } }
@keyframes tt_t { 0% { transform: translate(0px,-0.000293px); } 100% { transform: translate(0px,-0.000293px); } }
    </style>
    <g id="insta_yt" transform="translate(234.038,186.5) translate(-234.038,-186.5)" style="animation: 2s linear both insta_yt_t;">
        <g id="yt" fill="none" fill-rule="evenodd" transform="translate(134.576,186.5) translate(-134.576,-186.5)" style="animation: 2s linear both yt_t;">
            <path d="M195.513,2.67883L34.1278,49.2956C14.6527,54.9218,0,80.7673,0,107.428L0,265.572C0,292.234,14.6527,318.079,34.1278,323.705L195.513,370.322C234.18,381.49,269.153,356.784,269.153,313.847L269.153,59.1538C269.153,16.2158,234.18,-8.49073,195.513,2.67883Z" fill="url(#Gradient-0)" transform="translate(134.576,186.5) translate(-134.576,-186.5)"/>
            <path d="M138,143.776C142.66,144.952,146.377,149.149,147.643,154.737C149.671,163.658,149.925,181.283,149.957,185.551L149.961,186.435L149.961,186.559L149.957,187.444C149.925,191.711,149.671,209.337,147.643,218.259C146.358,223.866,142.643,228.063,138,229.219C134.835,230.01,128.816,230.182,122.687,230.096L121.605,230.078C121.425,230.075,121.244,230.071,121.064,230.068L118.753,230.009C112.336,229.819,106.428,229.425,104.103,229.259L103.089,229.184L103.043,229.18C103.043,229.18,103.029,229.179,102.999,229.177L101.989,229.093C97.1683,228.682,77.9083,226.912,72.0685,224.353C68.4643,222.761,65.6662,218.713,64.7279,213.785C63.2401,205.995,63.0561,190.946,63.0327,187.306L63.0327,185.69C63.0561,182.05,63.2401,167.001,64.7279,159.211C65.6792,154.264,68.4773,150.216,72.0685,148.643C77.9083,146.083,97.1683,144.313,101.989,143.903L104.103,143.737C106.428,143.57,112.336,143.176,118.753,142.986L121.064,142.927L122.146,142.907C123.048,142.892,123.95,142.882,124.841,142.879L125.907,142.879C130.852,142.893,135.394,143.124,138,143.776ZM94.1526,168L94.1526,205L120.153,186.5Z" fill="#f2ece5" transform="translate(106.497,186.498) translate(-106.497,-186.498)"/>
        </g>
        <g id="insta" fill="none" fill-rule="evenodd" transform="translate(134.576,186.5) translate(-134.576,-186.5)">
            <path d="M195.513,2.67883L34.1291,49.2956C14.654,54.9205,0,80.7673,0,107.428L0,265.572C0,292.234,14.654,318.079,34.1291,323.704L195.513,370.322C234.18,381.49,269.153,356.784,269.153,313.846L269.153,59.1538C269.153,16.2158,234.18,-8.49073,195.513,2.67883Z" fill="url(#Gradient-1)" transform="translate(134.576,186.5) translate(-134.576,-186.5)"/>
            <path d="M132.958,133.167C136.145,134.31,138.862,136.016,141.603,138.954C144.365,141.919,146.088,145.003,147.373,148.705C148.621,152.307,149.477,156.465,149.732,162.617C149.792,164.159,149.841,165.44,149.881,166.738L149.913,167.861C149.987,170.715,150.022,174.02,150.033,180.543L150.036,184.865L150.036,188.135L150.034,192.458C150.024,198.981,149.994,202.286,149.919,205.14L149.886,206.263C149.846,207.561,149.795,208.842,149.732,210.384C149.48,216.536,148.621,220.689,147.373,224.295C146.091,228.007,144.365,231.082,141.603,234.047C138.862,236.979,136.132,238.684,132.958,239.833C129.909,240.931,126.478,241.54,121.52,241.336C120.292,241.281,119.277,241.235,118.252,241.178L117.367,241.126C115.134,240.987,112.571,240.772,107.584,240.295L104.329,239.98C103.934,239.941,103.527,239.901,103.108,239.86L101.891,239.741L98.7028,239.424C93.962,238.95,91.5903,238.686,89.5582,238.41L88.7624,238.3C87.8461,238.169,86.9441,238.029,85.8619,237.858C81.5864,237.189,78.7132,236.049,76.2093,234.559C73.6522,233.039,71.506,231.115,69.3845,228.151C67.2811,225.21,65.9928,222.331,65.0377,219.004C64.1149,215.788,63.4928,212.16,63.3062,206.888C63.2621,205.568,63.2271,204.472,63.1973,203.363L63.174,202.403C63.1212,200.038,63.0965,197.315,63.0879,192.079L63.0872,181.419C63.0936,175.856,63.1157,173.035,63.1701,170.598L63.1934,169.638C63.2232,168.527,63.2608,167.433,63.3062,166.112C63.4889,160.836,64.1149,157.213,65.0377,153.995C65.9902,150.661,67.2811,147.791,69.3845,144.848C71.506,141.881,73.6548,139.966,76.2093,138.442C78.7093,136.948,81.5838,135.816,85.8619,135.142C86.9441,134.975,87.8461,134.837,88.7624,134.706L89.5582,134.596C91.5903,134.32,93.962,134.053,98.7028,133.577L107.584,132.704C112.571,132.226,115.134,132.007,117.367,131.869L118.252,131.817C119.277,131.76,120.292,131.716,121.52,131.665C126.478,131.455,129.909,132.064,132.958,133.167ZM103.108,159.82C91.428,160.393,82.3314,172.333,82.3314,186.5C82.3314,200.68,91.4371,212.607,103.108,213.18C115.312,213.779,125.603,201.839,125.603,186.5C125.603,171.148,115.301,159.223,103.108,159.82ZM116.385,186.5C116.385,195.558,110.363,202.722,103.108,202.508C96.0418,202.301,90.4483,195.138,90.4483,186.5C90.4483,177.865,96.0405,170.701,103.108,170.492C110.361,170.278,116.385,177.441,116.385,186.5ZM126.776,150.307C123.551,150.513,120.955,153.764,120.955,157.562C120.955,161.361,123.547,164.349,126.776,164.222C130.036,164.096,132.718,160.839,132.718,156.957C132.718,153.079,130.033,150.095,126.776,150.307Z" fill="#f2ece5" transform="translate(106.562,186.5) translate(-106.562,-186.5)"/>
        </g>
    </g>
    <g id="tt" fill="none" fill-rule="evenodd" transform="translate(134.576,186.5) translate(-134.576,-186.5)" style="animation: 2s linear both tt_t;">
        <path d="M195.513,2.67883L34.1291,49.2956C14.654,54.9218,0,80.7673,0,107.428L0,265.572C0,292.234,14.654,318.079,34.1291,323.705L195.513,370.322C234.181,381.49,269.153,356.785,269.153,313.847L269.153,59.1538C269.153,16.2158,234.181,-8.49073,195.513,2.67883Z" fill="url(#Gradient-2)" transform="translate(134.576,186.5) translate(-134.576,-186.5)"/>
        <path d="M144.671,175.365C135.351,175.543,127.045,172.042,120.669,166.156L120.669,206.117C120.669,225.891,107.584,240.629,92.259,239.117C77.7671,237.687,66.5851,222.097,66.5851,204.227C66.5851,186.359,77.7671,171.55,92.259,171.132C94.4104,171.07,96.519,171.326,98.5564,171.871L98.5564,188.607C96.6331,187.461,94.496,186.822,92.259,186.821C84.356,186.816,78.1209,194.79,78.1209,204.63C78.1209,214.472,84.356,222.881,92.259,223.428C100.403,223.992,107.189,216.038,107.189,205.646L107.189,133.07L120.669,131.756C120.669,146.966,131.168,158.788,144.671,158.134Z" fill="#f2ece5" transform="translate(105.628,185.49) translate(-105.628,-185.49)"/>
    </g>
</svg>
