<?xml version="1.0" encoding="utf-8" ?>
<svg xmlns="http://www.w3.org/2000/svg" xmlns:xlink="http://www.w3.org/1999/xlink" width="379" height="240">
	<path fill="white" transform="translate(71.0426 0.5)" d="M153 0C237.49924 0 306 45.666973 306 102C306 102.2653 305.99847 102.53035 305.99545 102.79517L306 137.16551C306 193.40714 237.49924 239 153 239C68.500763 239 0 193.40714 0 137.16551L0 102.79471L0.0089999996 102.794L0 102C0 97.957588 0.35425779 93.969078 1.0405369 90.048859L1.2190108 89.070236L93.928001 96.968002L46.023064 64.370804L46.023064 30C46.023064 30 46.542492 30.037029 47.513397 30.104916L46.023064 29.086977C73.609627 11.095496 111.35905 0 153 0Z" fill-rule="evenodd"/>
	<path fill="#503DD9" transform="translate(0.0426025 2.5)" d="M152 72.682281L44.868706 0C44.867039 0.0016592235 44.865372 0.0016592235 44.863708 0.0033184469C38.863117 3.8991749 33.343838 8.1202393 28.367493 12.621713C28.337515 12.64826 28.307537 12.676467 28.275894 12.704674C24.600262 16.036394 21.226072 19.524082 18.173315 23.147825C18.103367 23.230787 18.031754 23.315407 17.961803 23.398369C16.985855 24.564802 16.043215 25.742851 15.135548 26.935833C15.080587 27.007179 15.028959 27.080185 14.973999 27.151531C13.152004 29.560724 11.473238 32.02467 9.9376993 34.538395C9.8677511 34.651222 9.7961369 34.765709 9.7278538 34.878536C9.0017204 36.079815 8.3138924 37.292706 7.6560421 38.515553C7.5677738 38.679817 7.4795051 38.845737 7.3929024 39.011662C6.741714 40.242805 6.1188383 41.483906 5.5375986 42.734959C5.4976277 42.822899 5.460988 42.910835 5.4210176 42.997116C4.848105 44.24485 4.3101668 45.502544 3.8072031 46.770191C3.7738941 46.858128 3.735589 46.944408 3.7006147 47.032349C3.2076435 48.28838 2.7596393 49.557686 2.3382821 50.83197C2.269999 51.037712 2.2017159 51.243458 2.1350982 51.4492C1.7353917 52.700253 1.3673289 53.959606 1.0375711 55.227253C0.98594236 55.41972 0.94097537 55.615509 0.89101207 55.809639C0.55958891 57.128723 0.25481281 58.454441 0 59.790115C0 59.791775 0 59.793434 0 59.793434C0 59.793434 0 94.111153 0 94.109489C0 94.109489 0 94.111153 0 94.111153L152 107L152 72.682281Z" fill-rule="evenodd"/>
	<path fill="none" stroke="white" stroke-width="1" stroke-miterlimit="10" transform="translate(0.0426025 61.5)" d="M0 0L152 13" fill-rule="evenodd"/>
	<path fill="none" stroke="black" stroke-width="1" stroke-miterlimit="10" transform="translate(71.0426 0.5)" d="M153 0C111.35905 0 73.609627 11.095496 46.023064 29.086977L153 102L1.2190108 89.070236C0.41576087 93.304703 0 97.620728 0 102C0 158.33302 68.500763 204 153 204C237.49924 204 306 158.33302 306 102C306 45.666973 237.49924 0 153 0" fill-rule="evenodd"/>
</svg>
