<svg xmlns="http://www.w3.org/2000/svg" viewBox="0 0 320 350" style="background: rgba(243,237,229,0.00);"><style>
@keyframes a0_t { 0% { transform: translate(63.1px,143.5px); animation-timing-function: cubic-bezier(0,1,.2,1); } 27.273% { transform: translate(63.1px,156.2px); } 54.545% { transform: translate(63.1px,141px); } 100% { transform: translate(63.1px,141px); } }
@keyframes a1_t { 0% { transform: translate(96.9px,-39.3px) scale(1,-1) translate(-96.9px,-38.4px); animation-timing-function: cubic-bezier(0,0,.6,1); } 54.545% { transform: translate(96.9px,39.3px) scale(1,1) translate(-96.9px,-38.4px); } 100% { transform: translate(96.9px,39.3px) scale(1,1) translate(-96.9px,-38.4px); } }
@keyframes a2_t { 0% { transform: translate(46px,141px) rotate(-9deg) scale(0,0) translate(-34px,-34px); } 36.364% { transform: translate(46px,141px) rotate(-9deg) scale(0,0) translate(-34px,-34px); animation-timing-function: cubic-bezier(0,1,0,1.3); } 81.818% { transform: translate(46px,141px) rotate(-9deg) scale(1,1) translate(-34px,-34px); } 100% { transform: translate(46px,141px) rotate(-9deg) scale(1,1) translate(-34px,-34px); } }
@keyframes a3_t { 0% { transform: translate(160px,82.5px) scale(0,0) translate(-46px,-46px); } 45.455% { transform: translate(160px,82.5px) scale(0,0) translate(-46px,-46px); animation-timing-function: cubic-bezier(0,1,.1,1.3); } 90.909% { transform: translate(160px,82.5px) scale(1,1) translate(-46px,-46px); } 100% { transform: translate(160px,82.5px) scale(1,1) translate(-46px,-46px); } }
@keyframes a4_t { 0% { transform: translate(273px,120.2px) rotate(8deg) scale(0,0) translate(-30px,-30px); } 54.545% { transform: translate(273px,120.2px) rotate(8deg) scale(0,0) translate(-30px,-30px); animation-timing-function: cubic-bezier(0,1,0,1.3); } 100% { transform: translate(273px,120.2px) rotate(8deg) scale(1,1) translate(-30px,-30px); } }
</style><g transform="translate(160,236.1) translate(-96.9,-92.5)" style="animation: 1.1s linear both a0_t;"><path d="M0 185h193.8v-120.1h-193.8Z" fill="#fff" fill-rule="evenodd"/><path d="M0 64.9l96.9 74.7l96.9-74.7" stroke="#000" fill="#fff" fill-rule="evenodd"/><path d="M193.8 185l-96.9-74.7l-96.9 74.7" stroke="#000" fill="#fff" fill-rule="evenodd"/><g transform="translate(0,64.9)"><path d="M0-0.9l96.9-64.9l96.9 64.9" stroke="#000" fill="#fff" fill-rule="evenodd" transform="translate(96.9,-39.3) scale(1,-1) translate(-96.9,-38.4)" style="animation: 1.1s linear both a1_t;"/></g></g><g fill="none" fill-rule="evenodd" transform="translate(46,141) rotate(-9) scale(0,0) translate(-34,-34)" style="animation: 1.1s linear both a2_t;"><g transform="translate(-114,-198)"><g transform="translate(114,198)"><path d="M34 0c18.8 0 34 15.2 34 34h-34v34c-18.8 0-34-15.2-34-34c0-18.8 15.2-34 34-34Z" fill="#503dd9"/><path d="M68 34c0 18.8-15.2 34-34 34v-34Z" stroke="#000"/></g></g></g><g fill="none" fill-rule="evenodd" transform="translate(160,82.5) scale(0,0) translate(-46,-46)" style="animation: 1.1s linear both a3_t;"><g transform="translate(-213,-157)"><g transform="translate(213,157)"><path d="M0 0h92v92h-92Z"/><path d="M7.7 46h7.6v34.5h-7.6v-34.5Zm11.5 7.7h7.6v26.8h-7.6v-26.8Zm42.1-23h7.7v49.8h-7.7v-49.8Zm11.5 7.6h7.7v42.2h-7.7v-42.2Zm-38.3-30.6h7.7v72.8h-7.7v-72.8Zm11.5 7.6h7.7v65.2h-7.7v-65.2Z" fill="#000" fill-rule="nonzero"/></g></g></g><g fill="none" fill-rule="evenodd" transform="translate(273,120.2) rotate(8) scale(0,0) translate(-30,-30)" style="animation: 1.1s linear both a4_t;"><g transform="translate(-329,-204)"><g transform="translate(329,204)"><path d="M0 0h60v60h-60Z"/><path d="M12.1 8v40h40.2v5h-45.3v-45h5.1Zm38.4 8.2l3.5 3.5l-14.3 14.3l-7.5-7.5l-10.8 10.7l-3.6-3.5l14.4-14.3l7.5 7.5l10.8-10.7Z" fill="#503dd9"/></g></g></g></svg>