<?xml version="1.0" encoding="utf-8" ?>
<svg xmlns="http://www.w3.org/2000/svg" xmlns:xlink="http://www.w3.org/1999/xlink" width="88" height="88">
	<path fill="#2A273F" transform="translate(4 15)" d="M58.909092 19.174999L78.103516 5.7182431C78.93634 5.1342907 80.084335 5.3371768 80.66716 6.1714001C80.883652 6.4812975 81 6.8504162 81 7.2287169L81 51.771393C81 52.789513 80.175644 53.615143 79.159088 53.615143C78.781334 53.615143 78.412788 53.498619 78.103516 53.281796L58.909092 39.825001L58.909092 55.3125C58.909092 57.349106 57.260742 59 55.227272 59L3.6818182 59C1.6484237 59 0 57.349106 0 55.3125L0 3.6875C0 1.6509675 1.6484237 0 3.6818182 0L55.227272 0C57.260742 0 58.909092 1.6509675 58.909092 3.6875L58.909092 19.174999Z"/>
</svg>
