<?xml version="1.0" encoding="utf-8" ?>
<svg xmlns="http://www.w3.org/2000/svg" xmlns:xlink="http://www.w3.org/1999/xlink" width="12" height="12">
	<path fill="#2A273F" transform="translate(0.5 1.5)" d="M10.5 6L9 6L9 0L10.5 0C10.77615 0 11 0.22386 11 0.5L11 5.5C11 5.7761502 10.77615 6 10.5 6ZM7.85355 6.64645L4.6532998 9.8466997C4.5653501 9.9346504 4.4260702 9.9445496 4.32654 9.8698997L3.90025 9.5502005C3.6579001 9.3684502 3.5486951 9.0586996 3.62343 8.7651501L4.2000852 6.5L1 6.5C0.44771501 6.5 0 6.0523 0 5.5L0 4.4478502C0 4.3172002 0.025590001 4.18785 0.075319998 4.0671L1.6225049 0.309625C1.69965 0.122275 1.8822351 0 2.0848451 0L7.5 0C7.7761502 0 8 0.22386 8 0.5L8 6.2929001C8 6.4254999 7.9473 6.5527 7.85355 6.64645Z"/>
</svg>
