<?xml version="1.0" encoding="utf-8" ?>
<svg xmlns="http://www.w3.org/2000/svg" xmlns:xlink="http://www.w3.org/1999/xlink" width="36" height="36">
	<path fill="none" stroke="#2A273F" stroke-width="2" stroke-miterlimit="10" transform="translate(3 4.5)" d="M0 1.4901C0 0.66714001 0.68296498 0 1.4877 0L28.5123 0C29.334 0 30 0.66742498 30 1.4901L30 25.509899C30 26.3328 29.317051 27 28.5123 27L1.4877 27C0.66607499 27 0 26.332649 0 25.509899L0 1.4901ZM3 3L3 6L6 6L6 3L3 3ZM24 3L24 6L27 6L27 3L24 3ZM3 9L3 12L6 12L6 9L3 9ZM24 9L24 12L27 12L27 9L24 9ZM3 15L3 18L6 18L6 15L3 15ZM24 15L24 18L27 18L27 15L24 15ZM3 21L3 24L6 24L6 21L3 21ZM24 21L24 24L27 24L27 21L24 21Z" fill-rule="evenodd"/>
</svg>
