<?xml version="1.0" encoding="utf-8" ?>
<svg xmlns="http://www.w3.org/2000/svg" xmlns:xlink="http://www.w3.org/1999/xlink" width="12" height="12">
	<path fill="#2A273F" transform="translate(0.550291 0.550291)" d="M3.7928936 1.4497488L5.0962086 0.14644875C5.2914586 -0.048816249 5.6080589 -0.048816249 5.803309 0.14644875L7.1066089 1.4497488L8.9497585 1.4497488C9.2259083 1.4497488 9.4497585 1.6736088 9.4497585 1.9497488L9.4497585 3.7928936L10.753058 5.0962086C10.948309 5.2914586 10.948309 5.6080589 10.753058 5.803309L9.4497585 7.1066089L9.4497585 8.9497585C9.4497585 9.2259083 9.2259083 9.4497585 8.9497585 9.4497585L7.1066089 9.4497585L5.803309 10.753058C5.6080589 10.948309 5.2914586 10.948309 5.0962086 10.753058L3.7928936 9.4497585L1.9497488 9.4497585C1.6736088 9.4497585 1.4497488 9.2259083 1.4497488 8.9497585L1.4497488 7.1066089L0.14644875 5.803309C-0.048816249 5.6080589 -0.048816249 5.2914586 0.14644875 5.0962086L1.4497488 3.7928936L1.4497488 1.9497488C1.4497488 1.6736088 1.6736088 1.4497488 1.9497488 1.4497488L3.7928936 1.4497488ZM5.4497485 6.9497585C6.2781587 6.9497585 6.9497585 6.2781587 6.9497585 5.4497485C6.9497585 4.6213088 6.2781587 3.9497488 5.4497485 3.9497488C4.6213088 3.9497488 3.9497488 4.6213088 3.9497488 5.4497485C3.9497488 6.2781587 4.6213088 6.9497585 5.4497485 6.9497585Z"/>
</svg>
