<?xml version="1.0" encoding="utf-8" ?>
<svg xmlns="http://www.w3.org/2000/svg" xmlns:xlink="http://www.w3.org/1999/xlink" width="36" height="36">
	<path fill="none" stroke="#2A273F" stroke-width="2" stroke-miterlimit="10" transform="translate(4 12)" d="M0 6C0 9.313714 2.74225 12 6.125 12C8.2311249 12 9.6592827 11.256343 10.848495 10.091314C11.937468 9.0246859 12.812275 7.6230855 13.74555 6C12.812275 4.3769145 11.937468 2.9753144 10.848495 1.9086171C9.6592827 0.74365717 8.2311249 0 6.125 0C2.74225 0 0 2.6862857 0 6ZM14.25445 6C15.187725 7.6230855 16.06255 9.0246859 17.151575 10.091314C18.3407 11.256343 19.768875 12 21.875 12C25.25775 12 28 9.313714 28 6C28 2.6862857 25.25775 0 21.875 0C19.768875 0 18.3407 0.74365717 17.151575 1.9086171C16.06255 2.9753144 15.187725 4.3769145 14.25445 6Z" fill-rule="evenodd"/>
</svg>
