<?xml version="1.0" encoding="utf-8" ?>
<svg xmlns="http://www.w3.org/2000/svg" xmlns:xlink="http://www.w3.org/1999/xlink" width="12" height="12">
	<path fill="#2A273F" transform="translate(1 1)" d="M5 1C3.62572 1 2.41254 1.69313 1.692215 2.75L3 2.75L3 3.75L0 3.75L0 0.75L1 0.75L1 1.99968C1.9119051 0.78583002 3.3638201 0 5 0C7.7614002 0 10 2.238575 10 5L9 5C9 2.7908599 7.2091498 1 5 1ZM1 5C1 7.2091498 2.7908599 9 5 9C6.3743 9 7.58745 8.3068504 8.3078003 7.25L7 7.25L7 6.25L10 6.25L10 9.25L9 9.25L9 8.0003004C8.0881004 9.2141504 6.6362 10 5 10C2.238575 10 0 7.7614002 0 5L1 5Z"/>
</svg>
