<?xml version="1.0" encoding="utf-8" ?>
<svg xmlns="http://www.w3.org/2000/svg" xmlns:xlink="http://www.w3.org/1999/xlink" width="36" height="36">
	<path fill="none" stroke="#2A273F" stroke-width="2" stroke-miterlimit="10" transform="translate(1 1)" d="M34 17Q34 17.417326 33.979523 17.834148Q33.959045 18.250973 33.918144 18.666292Q33.877235 19.081608 33.815998 19.494415Q33.754761 19.907227 33.673347 20.316534Q33.591934 20.725842 33.490532 21.130661Q33.38913 21.53548 33.26799 21.934837Q33.146843 22.334194 33.006248 22.727123Q32.865654 23.120056 32.705952 23.505615Q32.546249 23.891174 32.367817 24.268435Q32.189388 24.645693 31.992664 25.013742Q31.795937 25.381792 31.581387 25.739744Q31.366837 26.097698 31.134981 26.444691Q30.903128 26.791685 30.65453 27.126884Q30.405928 27.462086 30.14118 27.784683Q29.876431 28.107281 29.596169 28.4165Q29.31591 28.725719 29.020815 29.020813Q28.725719 29.315907 28.416502 29.596167Q28.107285 29.876427 27.784687 30.141176Q27.46209 30.405926 27.126888 30.654524Q26.791687 30.903126 26.444693 31.134979Q26.097698 31.366833 25.739744 31.581383Q25.381794 31.795933 25.013744 31.992661Q24.645695 32.189384 24.268436 32.367817Q23.891176 32.546246 23.505617 32.705948Q23.120056 32.865654 22.727127 33.006248Q22.334194 33.146839 21.934839 33.267986Q21.53548 33.38913 21.130661 33.490528Q20.725842 33.59193 20.316534 33.673347Q19.907227 33.754761 19.494415 33.815998Q19.081608 33.877235 18.666292 33.918144Q18.250973 33.959045 17.83415 33.979523Q17.417326 34 17 34Q16.582672 34 16.16585 33.979523Q15.749025 33.959045 15.333709 33.918144Q14.918391 33.877235 14.505581 33.815998Q14.092772 33.754761 13.683464 33.673347Q13.274157 33.591934 12.869337 33.490532Q12.464518 33.38913 12.065161 33.26799Q11.665804 33.146843 11.272872 33.006248Q10.87994 32.865654 10.494381 32.705952Q10.108822 32.546249 9.7315626 32.367817Q9.3543034 32.189388 8.9862547 31.992664Q8.618206 31.795937 8.260252 31.581387Q7.9022999 31.366837 7.5553055 31.134981Q7.2083111 30.903128 6.8731117 30.65453Q6.5379124 30.405928 6.2153144 30.14118Q5.8927164 29.876431 5.583498 29.596169Q5.2742791 29.31591 4.9791846 29.020815Q4.6840897 28.725719 4.4038305 28.416502Q4.1235714 28.107285 3.8588223 27.784687Q3.5940731 27.46209 3.3454719 27.126888Q3.0968707 26.791687 2.8650165 26.444693Q2.6331623 26.097698 2.4186134 25.739744Q2.2040648 25.381794 2.0073385 25.013744Q1.8106121 24.645695 1.6321819 24.268436Q1.4537518 23.891176 1.2940478 23.505617Q1.1343439 23.120056 0.99375081 22.727127Q0.85315776 22.334194 0.73201424 21.934839Q0.61087072 21.53548 0.50946867 21.130661Q0.40806657 20.725842 0.3266502 20.316534Q0.24523383 19.907227 0.1839993 19.494415Q0.1227648 19.081608 0.081859641 18.666292Q0.040954486 18.250973 0.020477243 17.83415Q0 17.417326 0 17Q0 16.582672 0.020477243 16.16585Q0.040954486 15.749025 0.081859641 15.333709Q0.1227648 14.918391 0.18399931 14.505581Q0.24523383 14.092772 0.3266502 13.683464Q0.40806657 13.274157 0.50946867 12.869337Q0.61087078 12.464518 0.7320143 12.065161Q0.85315776 11.665804 0.99375081 11.272872Q1.1343439 10.87994 1.2940478 10.494381Q1.4537518 10.108822 1.6321819 9.7315626Q1.8106121 9.3543034 2.0073385 8.9862547Q2.2040648 8.618206 2.4186137 8.260252Q2.6331623 7.9022999 2.8650165 7.5553055Q3.0968707 7.2083111 3.3454719 6.8731117Q3.5940731 6.5379124 3.8588223 6.2153144Q4.1235714 5.8927164 4.4038305 5.583498Q4.6840897 5.2742791 4.9791846 4.9791846Q5.2742791 4.6840897 5.583498 4.4038305Q5.8927164 4.1235714 6.2153144 3.8588223Q6.5379124 3.5940731 6.8731117 3.3454719Q7.2083111 3.0968707 7.5553055 2.8650165Q7.9022999 2.6331623 8.260253 2.4186134Q8.618206 2.2040648 8.9862547 2.0073385Q9.3543034 1.8106121 9.7315626 1.6321819Q10.108822 1.4537518 10.494381 1.2940478Q10.87994 1.1343439 11.272872 0.99375081Q11.665804 0.85315776 12.06516 0.73201424Q12.464517 0.61087072 12.869337 0.50946867Q13.274157 0.40806657 13.683464 0.3266502Q14.092772 0.24523383 14.505581 0.1839993Q14.918392 0.1227648 15.33371 0.081859641Q15.749025 0.040954486 16.16585 0.020477243Q16.582672 0 17 0Q17.417326 0 17.834148 0.020477243Q18.250973 0.040954486 18.666292 0.081859641Q19.081608 0.1227648 19.494415 0.18399931Q19.907227 0.24523383 20.316534 0.3266502Q20.725842 0.40806657 21.130661 0.50946867Q21.53548 0.61087078 21.934837 0.7320143Q22.334194 0.85315776 22.727123 0.99375081Q23.120056 1.1343439 23.505615 1.2940478Q23.891174 1.4537518 24.268435 1.6321819Q24.645693 1.8106121 25.013742 2.0073385Q25.381792 2.2040648 25.739744 2.4186137Q26.097698 2.6331623 26.444691 2.8650165Q26.791685 3.0968707 27.126884 3.3454719Q27.462086 3.5940731 27.784683 3.8588223Q28.107281 4.1235714 28.4165 4.4038305Q28.725719 4.6840897 29.020813 4.9791846Q29.315907 5.2742791 29.596167 5.583498Q29.876427 5.8927164 30.141176 6.2153144Q30.405926 6.5379124 30.654524 6.8731117Q30.903126 7.2083111 31.134979 7.5553055Q31.366833 7.9022999 31.581383 8.260253Q31.795933 8.618206 31.992661 8.9862547Q32.189384 9.3543034 32.367817 9.7315626Q32.546246 10.108822 32.705948 10.494381Q32.865654 10.87994 33.006248 11.272872Q33.146839 11.665804 33.267986 12.06516Q33.38913 12.464517 33.490528 12.869337Q33.59193 13.274157 33.673347 13.683464Q33.754761 14.092772 33.815998 14.505581Q33.877235 14.918392 33.918144 15.33371Q33.959045 15.749025 33.979523 16.16585Q34 16.582672 34 17Z"/>
	<path fill="none" stroke="#2A273F" stroke-width="2" stroke-miterlimit="10" transform="translate(14 11)" d="M0.15037946 4.0962648C0.13585576 3.3313601 0.29561657 2.6369076 0.62966186 2.0179386C0.96370721 1.39897 1.4478308 0.91084015 2.0820329 0.54348475C2.7162347 0.18116158 3.4617851 0 4.3186841 0C5.1755829 0 5.9114509 0.15600026 6.526288 0.4629685C7.1411247 0.76993674 7.6107249 1.2077439 7.9447703 1.7663255C8.2788153 2.3249071 8.4385767 2.9791017 8.4385767 3.7289093C8.4385767 4.2371683 8.3562756 4.7102013 8.1868315 5.1379437C8.0222301 5.5656862 7.7462792 6.0236225 7.3686628 6.5117526C6.9910464 6.9998822 6.2744675 7.733748 5.1003413 8.3651447C4.4999008 8.6880369 3.3596599 8.9859085 1.6796178 9.2587595L1.6796118 9.2587223C0.71130037 9.4158697 -0.00010094399 10.252119 1.0590869e-08 11.2331L0 13L0 13L9 13" fill-rule="evenodd"/>
</svg>
