<?xml version="1.0" encoding="utf-8" ?>
<svg xmlns="http://www.w3.org/2000/svg" xmlns:xlink="http://www.w3.org/1999/xlink" width="36" height="36">
	<path fill="none" stroke="#2A273F" stroke-width="2" stroke-miterlimit="10" transform="translate(3 3)" d="M15 30C6.7157249 30 0 23.284201 0 15C0 6.7157249 6.7157249 0 15 0C23.284201 0 30 6.7157249 30 15C30 23.284201 23.284201 30 15 30ZM19.5 17C19.5 19.48535 17.48535 21.5 15 21.5C12.51465 21.5 10.5 19.48535 10.5 17M5.5 12C5.5 10.8954 7.0311341 10 8.9200001 10C10.808866 10 12.34 10.8954 12.34 12M17.66 12C17.66 10.8954 19.191133 10 21.08 10C22.968866 10 24.5 10.8954 24.5 12" fill-rule="evenodd"/>
</svg>
