<?xml version="1.0" encoding="utf-8" ?>
<svg xmlns="http://www.w3.org/2000/svg" xmlns:xlink="http://www.w3.org/1999/xlink" width="36" height="36">
	<path fill="none" stroke="#2A273F" stroke-width="2" stroke-miterlimit="10" transform="translate(2 17.579)" d="M0 0.42105263L5.98493 0.42105263L26.147045 0.42105263L32 0.42105263" fill-rule="evenodd"/>
	<path fill="#2A273F" transform="translate(14 14)" d="M8 4Q8 4.1965075 7.9807391 4.3920684Q7.9614778 4.5876293 7.9231405 4.7803607Q7.8848038 4.9730926 7.8277607 5.1611385Q7.7707176 5.349184 7.6955171 5.5307331Q7.6203175 5.7122822 7.5276842 5.8855863Q7.4350514 6.0588903 7.3258772 6.2222795Q7.2167044 6.3856702 7.092041 6.5375729Q6.9673786 6.6894751 6.8284264 6.8284264Q6.6894751 6.9673786 6.5375729 7.092041Q6.3856702 7.2167044 6.2222795 7.3258772Q6.0588903 7.4350514 5.8855867 7.5276847Q5.7122822 7.6203175 5.5307331 7.6955175Q5.349184 7.7707181 5.1611385 7.8277612Q4.9730926 7.8848042 4.7803607 7.9231405Q4.5876293 7.9614778 4.3920689 7.9807391Q4.1965075 8 4 8Q3.8034928 8 3.6079316 7.9807391Q3.4123702 7.9614778 3.2196386 7.9231405Q3.026907 7.8848038 2.8388612 7.8277607Q2.6508152 7.7707176 2.4692659 7.6955171Q2.2877169 7.6203175 2.1144128 7.5276842Q1.9411089 7.4350514 1.7777189 7.3258772Q1.6143291 7.2167044 1.4624269 7.092041Q1.3105247 6.9673786 1.1715728 6.8284264Q1.0326211 6.6894751 0.90795821 6.5375729Q0.78329521 6.3856702 0.6741215 6.2222795Q0.56494784 6.0588903 0.47231492 5.8855867Q0.37968194 5.7122822 0.30448183 5.5307331Q0.22928172 5.349184 0.17223865 5.1611385Q0.11519556 4.9730926 0.076858871 4.7803607Q0.038522184 4.5876293 0.019261092 4.3920689Q0 4.1965075 0 4Q0 3.8034928 0.019261092 3.6079316Q0.038522184 3.4123702 0.076858871 3.2196386Q0.11519556 3.026907 0.17223865 2.8388612Q0.22928172 2.6508152 0.30448183 2.4692659Q0.37968194 2.2877169 0.47231489 2.1144128Q0.56494784 1.9411089 0.6741215 1.7777189Q0.78329521 1.6143291 0.90795815 1.4624269Q1.0326211 1.3105247 1.1715728 1.1715728Q1.3105247 1.0326211 1.4624269 0.90795821Q1.6143292 0.78329521 1.777719 0.6741215Q1.9411089 0.56494784 2.1144128 0.47231492Q2.2877169 0.37968194 2.4692659 0.30448183Q2.6508152 0.22928172 2.8388612 0.17223865Q3.026907 0.11519556 3.2196386 0.076858871Q3.4123702 0.038522184 3.6079316 0.019261092Q3.8034928 0 4 0Q4.1965075 0 4.3920684 0.019261092Q4.5876293 0.038522184 4.7803607 0.076858871Q4.9730926 0.11519556 5.1611385 0.17223865Q5.349184 0.22928172 5.5307331 0.30448183Q5.7122822 0.37968194 5.8855863 0.47231489Q6.0588903 0.56494784 6.2222795 0.6741215Q6.3856702 0.78329521 6.5375729 0.90795815Q6.6894751 1.0326211 6.8284264 1.1715728Q6.9673786 1.3105247 7.092041 1.4624269Q7.2167044 1.6143292 7.3258772 1.777719Q7.4350514 1.9411089 7.5276847 2.1144128Q7.6203175 2.2877169 7.6955175 2.4692659Q7.7707181 2.6508152 7.8277612 2.8388612Q7.8848042 3.026907 7.9231405 3.2196386Q7.9614778 3.4123702 7.9807391 3.6079316Q8 3.8034928 8 4Z"/>
	<path fill="none" stroke="#2A273F" stroke-width="2" stroke-miterlimit="10" transform="translate(17.579 2.00005)" d="M0.42105263 0L0.42105263 6.0064564L0.42105263 26.024092L0.42105263 32" fill-rule="evenodd"/>
	<path fill="none" stroke="#2A273F" stroke-width="2" stroke-miterlimit="10" transform="translate(4.52632 4.52632)" d="M26.947369 13.473684Q26.947369 13.804445 26.931139 14.134808Q26.914909 14.465168 26.88249 14.794336Q26.850067 15.123503 26.801537 15.450684Q26.753002 15.777863 26.688473 16.102268Q26.623945 16.426674 26.543579 16.74752Q26.463209 17.068371 26.367195 17.38489Q26.271179 17.701408 26.159748 18.012833Q26.048319 18.324257 25.921741 18.629839Q25.795166 18.935421 25.653748 19.234426Q25.512329 19.53343 25.356411 19.825134Q25.200491 20.116838 25.030445 20.400541Q24.860401 20.684242 24.67664 20.959261Q24.492878 21.23428 24.295845 21.499949Q24.098812 21.765617 23.888981 22.021301Q23.67915 22.276981 23.457026 22.522057Q23.234901 22.767136 23.001017 23.001019Q22.767134 23.234901 22.522057 23.457027Q22.276978 23.67915 22.021297 23.888983Q21.765617 24.098814 21.499947 24.295849Q21.234278 24.492882 20.959259 24.676643Q20.684242 24.860405 20.400539 25.030449Q20.116837 25.200493 19.825134 25.356413Q19.53343 25.512333 19.234426 25.653751Q18.935421 25.79517 18.629839 25.921745Q18.324257 26.048323 18.012831 26.159752Q17.701406 26.271181 17.384888 26.367195Q17.068371 26.463209 16.747524 26.543579Q16.426674 26.623947 16.10227 26.688475Q15.777864 26.753002 15.450686 26.801537Q15.123505 26.850069 14.794336 26.88249Q14.465168 26.914909 14.134807 26.931137Q13.804445 26.947369 13.473684 26.947369Q13.142924 26.947369 12.812562 26.931139Q12.482201 26.914909 12.153032 26.88249Q11.823864 26.850067 11.496684 26.801537Q11.169503 26.753002 10.845098 26.688473Q10.520694 26.623945 10.199845 26.543579Q9.8789978 26.463209 9.56248 26.367195Q9.2459612 26.271179 8.934536 26.159748Q8.6231098 26.048319 8.3175278 25.921741Q8.0119457 25.795166 7.7129421 25.653748Q7.4139376 25.512329 7.1222329 25.356411Q6.8305283 25.200491 6.5468254 25.030445Q6.2631226 24.860401 5.9881058 24.67664Q5.7130885 24.492878 5.4474192 24.295845Q5.1817503 24.098812 4.9260693 23.888981Q4.6703882 23.67915 4.4253106 23.457026Q4.1802335 23.234901 3.9463506 23.001017Q3.7124677 22.767134 3.4903426 22.522057Q3.2682176 22.276978 3.0583854 22.021297Q2.8485532 21.765617 2.6515193 21.499947Q2.4544857 21.234278 2.270725 20.959259Q2.0869644 20.684242 1.9169195 20.400539Q1.7468748 20.116837 1.5909555 19.825134Q1.4350361 19.53343 1.2936177 19.234426Q1.1521995 18.935421 1.025623 18.629839Q0.89904654 18.324257 0.78761667 18.012831Q0.67618692 17.701406 0.58017224 17.384888Q0.48415756 17.068371 0.40378937 16.747524Q0.32342115 16.426674 0.25889301 16.10227Q0.19436488 15.777864 0.14583226 15.450686Q0.097299635 15.123505 0.064879462 14.794336Q0.032459278 14.465168 0.016229639 14.134807Q0 13.804445 0 13.473684Q0 13.142924 0.016229639 12.812562Q0.032459278 12.482201 0.064879462 12.153032Q0.097299635 11.823864 0.14583226 11.496684Q0.19436488 11.169503 0.25889301 10.845098Q0.32342115 10.520694 0.40378934 10.199845Q0.48415756 9.8789978 0.58017224 9.56248Q0.67618692 9.2459612 0.78761673 8.934536Q0.89904654 8.6231098 1.025623 8.3175278Q1.1521995 8.0119457 1.2936177 7.7129421Q1.4350361 7.4139376 1.5909555 7.1222329Q1.7468748 6.8305283 1.9169196 6.5468254Q2.0869644 6.2631226 2.270725 5.9881058Q2.4544857 5.7130885 2.6515193 5.4474192Q2.8485532 5.1817503 3.0583854 4.9260693Q3.2682176 4.6703882 3.4903426 4.4253106Q3.7124677 4.1802335 3.9463506 3.9463506Q4.1802335 3.7124677 4.4253106 3.4903426Q4.6703882 3.2682176 4.9260693 3.0583854Q5.1817503 2.8485532 5.4474196 2.6515193Q5.7130885 2.4544857 5.9881058 2.270725Q6.2631226 2.0869644 6.5468259 1.9169195Q6.8305283 1.7468748 7.1222334 1.5909555Q7.413938 1.4350361 7.7129416 1.2936177Q8.0119457 1.1521995 8.3175278 1.025623Q8.6231098 0.89904654 8.934536 0.78761667Q9.2459612 0.67618692 9.56248 0.58017224Q9.8789978 0.48415756 10.199846 0.40378937Q10.520694 0.32342115 10.845098 0.25889301Q11.169503 0.19436488 11.496683 0.14583226Q11.823864 0.097299635 12.153032 0.064879462Q12.482201 0.032459278 12.812562 0.016229639Q13.142924 0 13.473684 0Q13.804445 0 14.134808 0.016229639Q14.465168 0.032459278 14.794336 0.064879462Q15.123503 0.097299635 15.450684 0.14583226Q15.777863 0.19436488 16.102268 0.25889301Q16.426674 0.32342115 16.74752 0.40378934Q17.068371 0.48415756 17.38489 0.58017224Q17.701408 0.67618692 18.012833 0.78761673Q18.324257 0.89904654 18.629839 1.025623Q18.935421 1.1521995 19.234426 1.2936177Q19.53343 1.4350361 19.825134 1.5909555Q20.116838 1.7468748 20.400541 1.9169196Q20.684242 2.0869644 20.959261 2.270725Q21.23428 2.4544857 21.499949 2.6515193Q21.765617 2.8485532 22.021301 3.0583854Q22.276981 3.2682176 22.522057 3.4903426Q22.767136 3.7124677 23.001019 3.9463506Q23.234901 4.1802335 23.457027 4.4253106Q23.67915 4.6703882 23.888983 4.9260693Q24.098814 5.1817503 24.295849 5.4474196Q24.492882 5.7130885 24.676643 5.9881058Q24.860405 6.2631226 25.030449 6.5468259Q25.200493 6.8305283 25.356413 7.1222334Q25.512333 7.413938 25.653751 7.7129416Q25.79517 8.0119457 25.921745 8.3175278Q26.048323 8.6231098 26.159752 8.934536Q26.271181 9.2459612 26.367195 9.56248Q26.463209 9.8789978 26.543579 10.199846Q26.623947 10.520694 26.688475 10.845098Q26.753002 11.169503 26.801537 11.496683Q26.850069 11.823864 26.88249 12.153032Q26.914909 12.482201 26.931139 12.812562Q26.947369 13.142924 26.947369 13.473684Z"/>
</svg>
