<?xml version="1.0" encoding="utf-8" ?>
<svg xmlns="http://www.w3.org/2000/svg" xmlns:xlink="http://www.w3.org/1999/xlink" width="36" height="37">
	<path fill="none" stroke="#2A273F" stroke-width="2" stroke-miterlimit="10" transform="translate(3 2.47932)" d="M1.4546193 23.582014C3.0732093 25.872881 6.9230328 25.613249 8.0499954 22.986387C10.059471 23.407253 12.128495 23.451258 14.153743 23.116203L12.85282 29.614632C12.806807 29.841976 12.865678 30.078112 13.012814 30.256371C13.159949 30.434631 13.379385 30.535675 13.609171 30.531282L26.467129 30.531282C26.683008 30.532301 26.88916 30.440424 27.033659 30.278488C27.178158 30.116552 27.247231 29.899994 27.223478 29.683357C26.81505 26.094332 25.95281 18.595558 25.559507 15.098168C25.414814 11.912271 23.788597 8.9824152 21.172676 7.1946754C21.062904 4.6196065 19.980257 2.1848218 18.147274 0.39079928C17.930079 0.074709617 17.539272 -0.069046475 17.171581 0.03189674C16.881731 0.11820173 16.670582 0.37041441 16.634573 0.67333961L15.916039 7.9506617L15.65888 8.1262951L1.5075638 17.656303C0.41011322 18.397684 -0.16218327 19.714113 0.040243931 21.031515C0.13856949 21.963135 0.92517394 22.864208 1.4546193 23.582014ZM14.820169 13.851656C15.408688 13.508168 16.02939 13.224248 16.673227 13.004035L17.429579 13.004035" fill-rule="evenodd"/>
	<path fill="none" stroke="#2A273F" stroke-width="2" stroke-miterlimit="10" transform="translate(27.1098 6.71705)" d="M6.8901887 25.338186C6.7019672 23.701662 6.4291086 21.343649 6.1412597 18.854965M5.9284415 17.014622C5.7469935 15.445107 5.4645066 12.755639 5.3015261 11.340055M4.9953871 8.904932C4.9325881 7.5368133 4.6247215 6.2106018 4.1027937 4.9815712M2.3185954 2.0822396C1.6523814 1.2940371 0.87478828 0.59152889 0 0" fill-rule="evenodd"/>
	<path fill="none" stroke="#2A273F" stroke-width="2" stroke-miterlimit="10" transform="translate(8.56134 1.01074)" d="M7.0540476 8.0826817L2.4356997 0.65779269C2.2055647 0.25528923 1.7821226 0.0052813594 1.3218246 0.00014086787C0.89392412 -0.0061729099 0.4902404 0.20008588 0.24187094 0.551934C-0.006498517 0.90378213 -0.067875803 1.3563437 0.077671565 1.7626479L3.3346164 11.199952" fill-rule="evenodd"/>
</svg>
