<?xml version="1.0" encoding="utf-8" ?>
<svg xmlns="http://www.w3.org/2000/svg" xmlns:xlink="http://www.w3.org/1999/xlink" width="36" height="36">
	<path fill="none" stroke="#2A273F" stroke-width="2" stroke-miterlimit="10" transform="translate(3 1.5)" d="M0 31.5C0 24.872549 5.3725801 19.5 12 19.5C18.627451 19.5 24 24.872549 24 31.5L0 31.5ZM12 18C7.0275002 18 3 13.9725 3 9C3 4.0275002 7.0275002 0 12 0C16.9725 0 21 4.0275002 21 9C21 13.9725 16.9725 18 12 18ZM23.044201 21.3498C27.6723 22.532551 31.15185 26.585251 31.475401 31.5L27 31.5C27 27.5853 25.500299 24.020849 23.044201 21.3498ZM20.010151 17.93535C22.4592 15.7383 24 12.549105 24 9C24 6.8739901 23.4471 4.8771148 22.47735 3.1453049C25.912951 3.830955 28.5 6.8619752 28.5 10.5C28.5 14.64375 25.143749 18 21 18C20.66445 18 20.334 17.977949 20.010151 17.93535Z" fill-rule="evenodd"/>
</svg>
